<svg width="100" height="101" viewBox="0 0 100 101" fill="none" xmlns="http://www.w3.org/2000/svg">
<circle cx="50" cy="51" r="36.5" stroke="white"/>
<path d="M54.0204 11.1047C53.2565 11.0161 52.6348 10.8356 52.1554 10.5632C51.6769 10.2832 51.3281 9.95243 51.1092 9.57089C50.8902 9.18935 50.7961 8.79907 50.8269 8.40004C50.8339 8.33893 50.8631 8.28811 50.9142 8.24759C50.9739 8.20031 51.0381 8.18066 51.1069 8.18863L52.5507 8.35608C52.6577 8.36848 52.7357 8.39688 52.7847 8.44128C52.8414 8.48657 52.8891 8.54243 52.9279 8.60886C52.9757 8.73054 53.0469 8.85106 53.1415 8.97041C53.2436 9.09065 53.3786 9.19534 53.5463 9.28447C53.7226 9.36685 53.9444 9.42355 54.2118 9.45456C54.6549 9.50594 54.9952 9.47572 55.2327 9.36391C55.4778 9.25297 55.6141 9.0791 55.6416 8.84227C55.6611 8.6742 55.6159 8.5296 55.5061 8.40848C55.3971 8.27971 55.21 8.15736 54.9447 8.04143C54.688 7.91875 54.3396 7.78544 53.8995 7.64149C53.333 7.45193 52.8546 7.23773 52.4642 6.9989C52.0824 6.75332 51.8027 6.46152 51.6251 6.12349C51.4484 5.77782 51.3875 5.36817 51.4424 4.89452C51.4965 4.42851 51.6746 4.02722 51.9769 3.69065C52.2868 3.35496 52.6906 3.11145 53.1881 2.96011C53.6857 2.80877 54.2592 2.77076 54.9085 2.84606C55.4356 2.9072 55.8898 3.02955 56.2712 3.21313C56.6601 3.3976 56.9788 3.62037 57.2272 3.88145C57.4757 4.14253 57.6536 4.41091 57.761 4.6866C57.8769 4.95554 57.9245 5.21268 57.9038 5.45803C57.8967 5.51915 57.8671 5.57378 57.8151 5.62195C57.7639 5.66247 57.704 5.67874 57.6352 5.67077L56.1226 5.49535C56.0386 5.4856 55.9678 5.46191 55.9102 5.42426C55.8526 5.38662 55.8049 5.33076 55.7671 5.25669C55.7407 5.0833 55.6353 4.92398 55.4509 4.77871C55.2749 4.62669 55.0304 4.53252 54.7171 4.49619C54.381 4.45721 54.1104 4.48776 53.9052 4.58785C53.7086 4.68117 53.5961 4.85007 53.5677 5.09453C53.55 5.24732 53.5841 5.38677 53.6702 5.51288C53.7638 5.63988 53.9242 5.75913 54.1513 5.87063C54.386 5.98301 54.7081 6.1094 55.1177 6.2498C55.7978 6.4603 56.3403 6.68966 56.745 6.9379C57.1507 7.17851 57.4347 7.46693 57.597 7.80319C57.7602 8.1318 57.8147 8.52911 57.7607 8.99512C57.7005 9.51461 57.4992 9.94806 57.157 10.2955C56.8233 10.6362 56.3851 10.8757 55.8426 11.0141C55.3001 11.1524 54.6927 11.1826 54.0204 11.1047Z" fill="white"/>
<path d="M63.2502 13.1695C62.5649 12.9159 62.0185 12.5866 61.6107 12.1816C61.2102 11.7792 60.9529 11.3109 60.839 10.7767C60.7322 10.2452 60.7832 9.65313 60.9918 9.00051C61.094 8.70212 61.2078 8.38342 61.3333 8.04442C61.4587 7.70541 61.5824 7.38217 61.7044 7.07469C61.9654 6.45785 62.313 5.98375 62.7472 5.65239C63.1841 5.31381 63.6891 5.12346 64.2623 5.08133C64.8382 5.03199 65.4615 5.13141 66.1323 5.3796C66.6084 5.55573 67.0257 5.77983 67.3842 6.05189C67.7454 6.31674 68.0348 6.62061 68.2523 6.96351C68.4726 7.29919 68.6056 7.66001 68.6514 8.04597C68.7071 8.42738 68.6638 8.82138 68.5216 9.22797C68.5047 9.29555 68.4631 9.34164 68.3966 9.36624C68.3373 9.3935 68.2752 9.39513 68.2103 9.37111L66.7497 8.8307C66.6559 8.79601 66.5905 8.75129 66.5533 8.69655C66.5188 8.63459 66.5036 8.54284 66.5075 8.42131C66.548 8.00167 66.4782 7.68062 66.2981 7.45818C66.1279 7.2312 65.8768 7.05633 65.5451 6.93357C65.1484 6.78679 64.7932 6.7825 64.4797 6.9207C64.1688 7.05169 63.9078 7.36924 63.6967 7.87334C63.4562 8.45679 63.2321 9.06267 63.0242 9.69098C62.8564 10.2111 62.8465 10.6256 62.9946 10.9346C63.1453 11.2364 63.4191 11.4607 63.8158 11.6075C64.1476 11.7302 64.4555 11.7622 64.7397 11.7033C65.0239 11.6445 65.2823 11.4449 65.5148 11.1045C65.5837 11.007 65.65 10.9495 65.7139 10.9321C65.7876 10.9102 65.8713 10.9166 65.9651 10.9513L67.4257 11.4917C67.4906 11.5157 67.5367 11.5574 67.564 11.6166C67.5984 11.6786 67.6001 11.7407 67.5688 11.8029C67.4122 12.2042 67.1873 12.5351 66.8941 12.7956C66.6107 13.0516 66.2749 13.239 65.8866 13.3577C65.5009 13.4692 65.0834 13.5115 64.6341 13.4847C64.1875 13.4507 63.7262 13.3456 63.2502 13.1695Z" fill="white"/>
<path d="M69.4741 15.6959C69.4042 15.6483 69.3621 15.5871 69.3479 15.5123C69.3337 15.4375 69.3504 15.3651 69.398 15.2952L73.6178 9.0968C73.6654 9.02687 73.7266 8.9848 73.8014 8.9706C73.8762 8.95639 73.9486 8.97309 74.0185 9.0207L76.6123 10.7865C77.4324 11.3448 77.9478 11.9748 78.1586 12.6765C78.38 13.3762 78.2549 14.0725 77.7831 14.7655C77.4758 15.2168 77.1049 15.5225 76.6703 15.6826C76.2421 15.8469 75.7959 15.8874 75.3317 15.804L75.0506 19.0457C75.0437 19.0968 75.0295 19.1383 75.0078 19.1701C74.9732 19.2209 74.9185 19.2535 74.8437 19.2677C74.7796 19.2798 74.7189 19.2664 74.6617 19.2275L73.403 18.3706C73.2822 18.2883 73.2126 18.1991 73.1944 18.103C73.1804 18.0004 73.1781 17.9151 73.1873 17.8469L73.5284 15.0089L72.5462 14.3403L71.105 16.4572C71.0574 16.5272 70.9962 16.5692 70.9214 16.5834C70.8466 16.5977 70.7742 16.581 70.7043 16.5333L69.4741 15.6959ZM73.4615 12.9957L74.5677 13.7487C74.8665 13.9522 75.1388 14.0305 75.3846 13.9839C75.6367 13.9415 75.8493 13.7932 76.0224 13.5389C76.1912 13.291 76.2544 13.0409 76.2121 12.7888C76.1761 12.541 76.0023 12.3111 75.6908 12.099L74.5846 11.346L73.4615 12.9957Z" fill="white"/>
<path d="M79.1725 23.6754C78.7008 23.1481 78.3765 22.6126 78.1998 22.069C78.0232 21.5254 78.0093 20.9908 78.1584 20.4654C78.3133 19.9348 78.6412 19.4247 79.1423 18.9352C79.3837 18.709 79.6276 18.4857 79.8741 18.2652C80.1206 18.0447 80.3725 17.8245 80.6298 17.6047C81.1662 17.1661 81.7067 16.8994 82.2512 16.8045C82.8065 16.7101 83.3474 16.7784 83.8737 17.0092C84.4001 17.24 84.8966 17.6163 85.3631 18.1379C85.8246 18.6538 86.1408 19.1861 86.3118 19.7348C86.4879 20.2893 86.4982 20.8372 86.3428 21.3787C86.1931 21.915 85.868 22.4225 85.3675 22.9011C85.1255 23.1382 84.8813 23.367 84.6348 23.5875C84.3883 23.8079 84.1367 24.0227 83.88 24.2317C83.3379 24.6753 82.7946 24.9447 82.2501 25.0396C81.7113 25.1294 81.1816 25.0563 80.661 24.8204C80.1404 24.5844 79.6442 24.2028 79.1725 23.6754ZM80.4106 22.5679C80.6823 22.8717 80.9945 23.0361 81.3472 23.0612C81.7049 23.092 82.0896 22.9337 82.5011 22.5863C82.7635 22.3721 83.0065 22.1651 83.2301 21.9651C83.4536 21.7652 83.6807 21.5518 83.9112 21.325C84.1703 21.0725 84.342 20.8261 84.4262 20.5857C84.5212 20.3459 84.5397 20.1127 84.4815 19.8861C84.4233 19.6596 84.3045 19.446 84.125 19.2454C83.9507 19.0505 83.7542 18.9116 83.5355 18.8286C83.3168 18.7456 83.0804 18.7351 82.8264 18.7973C82.5782 18.8542 82.3142 18.9975 82.0345 19.227C81.7887 19.4366 81.554 19.6414 81.3304 19.8414C81.1069 20.0413 80.8715 20.257 80.6245 20.4883C80.2386 20.8644 80.0385 21.2291 80.0243 21.5823C80.0101 21.9356 80.1389 22.2641 80.4106 22.5679Z" fill="white"/>
<path d="M83.5354 28.9336C83.4949 28.8594 83.4854 28.7857 83.5068 28.7127C83.5283 28.6396 83.5761 28.5829 83.6504 28.5423L90.2322 24.9498C90.3064 24.9092 90.3801 24.8997 90.4531 24.9212C90.5262 24.9426 90.583 24.9905 90.6235 25.0647L91.3531 26.4013C91.3899 26.4688 91.3976 26.5391 91.3761 26.6122C91.3584 26.692 91.3123 26.7521 91.2381 26.7927L85.9322 29.6888L87.6013 32.7468C87.6419 32.8211 87.648 32.8966 87.6198 32.9733C87.602 33.0531 87.556 33.1133 87.4818 33.1538L86.4692 33.7065C86.3949 33.747 86.3194 33.7532 86.2427 33.725C86.1696 33.7035 86.1129 33.6557 86.0723 33.5814L83.5354 28.9336Z" fill="white"/>
<path d="M87.3393 36.5195C87.3147 36.4385 87.3204 36.3645 87.3562 36.2973C87.3921 36.2302 87.4505 36.1843 87.5314 36.1597L94.7061 33.9801C94.787 33.9555 94.8611 33.9612 94.9282 33.997C94.9954 34.0329 95.0413 34.0913 95.0659 34.1723L95.5085 35.6293C95.5308 35.7029 95.5241 35.7732 95.4882 35.8404C95.4546 35.9149 95.3973 35.9645 95.3164 35.989L89.5325 37.7461L90.5451 41.0796C90.5697 41.1605 90.5604 41.2357 90.5172 41.3051C90.4836 41.3796 90.4263 41.4291 90.3453 41.4537L89.2415 41.7891C89.1606 41.8136 89.0854 41.8043 89.016 41.7611C88.9489 41.7252 88.903 41.6668 88.8784 41.5859L87.3393 36.5195Z" fill="white"/>
<path d="M91.9331 43.5305C91.9242 43.4463 91.9437 43.3747 91.9916 43.3155C92.0395 43.2563 92.1055 43.2223 92.1897 43.2134L93.268 43.0995C93.3522 43.0906 93.4238 43.1101 93.483 43.158C93.5422 43.2059 93.5763 43.2719 93.5851 43.356L93.9643 46.9469C93.9732 47.031 93.9537 47.1026 93.9058 47.1618C93.8579 47.221 93.7919 47.2551 93.7078 47.2639L92.6294 47.3778C92.5452 47.3867 92.4736 47.3672 92.4144 47.3193C92.3552 47.2714 92.3212 47.2054 92.3123 47.1213L91.9331 43.5305Z" fill="white"/>
<path d="M89.5472 54.1061C89.6259 53.3411 89.7982 52.7171 90.0643 52.2342C90.3381 51.7521 90.6643 51.399 91.043 51.1751C91.4216 50.9511 91.8106 50.852 92.21 50.8776C92.2712 50.8839 92.3224 50.9123 92.3636 50.9629C92.4117 51.022 92.4322 51.0859 92.4251 51.1548L92.2764 52.6007C92.2654 52.7078 92.2381 52.7862 92.1943 52.8358C92.1498 52.8931 92.0945 52.9415 92.0286 52.9811C91.9076 53.0305 91.788 53.1033 91.6699 53.1994C91.551 53.3031 91.448 53.4394 91.3611 53.6083C91.281 53.7856 91.2272 54.0082 91.1997 54.276C91.1541 54.7197 91.1887 55.0595 91.3036 55.2956C91.4178 55.5392 91.5934 55.6732 91.8306 55.6976C91.9989 55.7149 92.1429 55.6679 92.2625 55.5565C92.3899 55.4459 92.5098 55.2572 92.6222 54.9904C92.7416 54.7321 92.8703 54.382 93.0085 53.94C93.1907 53.3712 93.3987 52.89 93.6324 52.4966C93.873 52.1115 94.1611 51.828 94.4968 51.6461C94.8401 51.4649 95.249 51.3987 95.7233 51.4474C96.19 51.4954 96.5935 51.6683 96.934 51.9662C97.2737 52.2717 97.5225 52.6722 97.6803 53.1678C97.8381 53.6633 97.8835 54.2363 97.8167 54.8865C97.7624 55.4144 97.646 55.8702 97.4674 56.2538C97.288 56.6452 97.0694 56.9667 96.8116 57.2186C96.5538 57.4704 96.2877 57.6518 96.0135 57.7627C95.7461 57.8821 95.4896 57.9331 95.244 57.9156C95.1828 57.9093 95.1277 57.8804 95.0789 57.829C95.0377 57.7784 95.0207 57.7187 95.0277 57.6498L95.1835 56.135C95.1921 56.0509 95.2149 55.9798 95.2518 55.9217C95.2887 55.8637 95.3439 55.8152 95.4175 55.7764C95.5905 55.7478 95.7484 55.6403 95.8913 55.454C96.041 55.2761 96.132 55.0303 96.1642 54.7167C96.1988 54.3801 96.1647 54.1098 96.062 53.906C95.9661 53.7106 95.7958 53.6003 95.551 53.5751C95.398 53.5594 95.259 53.5954 95.134 53.683C95.0082 53.7783 94.8911 53.9403 94.7825 54.1688C94.6732 54.4049 94.551 54.7287 94.416 55.14C94.2144 55.8228 93.9921 56.3682 93.7491 56.7762C93.5138 57.185 93.2291 57.4727 92.895 57.6393C92.5686 57.8068 92.172 57.8665 91.7053 57.8186C91.1851 57.7651 90.749 57.5695 90.3972 57.2318C90.0522 56.9026 89.807 56.4676 89.6616 55.9269C89.5161 55.3863 89.478 54.7793 89.5472 54.1061Z" fill="white"/>
<path d="M87.6032 63.3636C87.8477 62.6751 88.1698 62.1244 88.5695 61.7114C88.9666 61.3056 89.4315 61.0422 89.9641 60.9212C90.4942 60.8075 91.0869 60.8507 91.7422 61.0508C92.0419 61.1491 92.362 61.2587 92.7027 61.3797C93.0433 61.5006 93.3681 61.6201 93.6772 61.738C94.2974 61.9909 94.776 62.3323 95.113 62.7621C95.4573 63.1945 95.6543 63.697 95.7039 64.2696C95.7608 64.8448 95.6695 65.4694 95.4302 66.1434C95.2603 66.6217 95.0417 67.0419 94.7744 67.404C94.5143 67.7686 94.2142 68.062 93.8742 68.284C93.5414 68.5086 93.1824 68.6463 92.7971 68.6972C92.4164 68.7579 92.0219 68.7198 91.6135 68.5829C91.5457 68.567 91.499 68.5259 91.4736 68.4597C91.4455 68.4008 91.4431 68.3387 91.4663 68.2735L91.9875 66.8059C92.0209 66.7117 92.0648 66.6457 92.119 66.6078C92.1805 66.5725 92.2721 66.5561 92.3937 66.5585C92.8138 66.5934 93.1339 66.5194 93.3539 66.3364C93.5787 66.1632 93.7502 65.9099 93.8686 65.5765C94.0102 65.1779 94.0098 64.8228 93.8675 64.5111C93.7325 64.202 93.4115 63.9452 92.9047 63.7407C92.3182 63.5079 91.7094 63.2917 91.0784 63.0921C90.5561 62.9311 90.1415 62.9266 89.8345 63.0788C89.5347 63.2334 89.314 63.5101 89.1725 63.9087C89.0541 64.2421 89.0261 64.5504 89.0887 64.8338C89.1513 65.1172 89.3543 65.3729 89.6977 65.601C89.7961 65.6686 89.8544 65.7342 89.8726 65.7978C89.8955 65.8712 89.8902 65.955 89.8568 66.0492L89.3356 67.5168C89.3124 67.582 89.2714 67.6287 89.2124 67.6567C89.1509 67.692 89.0889 67.6944 89.0262 67.664C88.623 67.5126 88.2891 67.2921 88.0248 67.0023C87.7651 66.7224 87.5734 66.389 87.4496 66.0023C87.333 65.6181 87.2852 65.2012 87.3061 64.7516C87.3343 64.3046 87.4333 63.8419 87.6032 63.3636Z" fill="white"/>
<path d="M85.159 69.6192C85.2057 69.5487 85.2664 69.5058 85.341 69.4906C85.4156 69.4754 85.4882 69.4912 85.5587 69.5379L91.8115 73.6765C91.8821 73.7232 91.925 73.7839 91.9401 73.8585C91.9553 73.9331 91.9396 74.0057 91.8929 74.0762L90.161 76.6928C89.6134 77.5201 88.9902 78.0437 88.2913 78.2636C87.5945 78.4941 86.8967 78.378 86.1976 77.9154C85.7423 77.614 85.4318 77.2471 85.2661 76.8146C85.0962 76.3886 85.0499 75.9429 85.1273 75.4777L81.8822 75.2389C81.8309 75.2326 81.7893 75.2189 81.7572 75.1977C81.7059 75.1637 81.6727 75.1094 81.6575 75.0348C81.6445 74.9709 81.6571 74.9101 81.6953 74.8523L82.5358 73.5825C82.6164 73.4607 82.7047 73.39 82.8006 73.3705C82.903 73.3552 82.9883 73.3517 83.0566 73.36L85.8988 73.6642L86.5546 72.6733L84.419 71.2598C84.3485 71.2131 84.3056 71.1525 84.2904 71.0779C84.2752 71.0033 84.291 70.9307 84.3377 70.8601L85.159 69.6192ZM87.911 73.5711L87.1724 74.687C86.9729 74.9884 86.898 75.2617 86.9479 75.5068C86.9935 75.7584 87.1446 75.969 87.4012 76.1388C87.6513 76.3044 87.9021 76.3643 88.1536 76.3187C88.4009 76.2795 88.6286 76.1028 88.8366 75.7885L89.5752 74.6726L87.911 73.5711Z" fill="white"/>
<path d="M77.3069 79.4197C77.8281 78.9412 78.3593 78.61 78.9006 78.4263C79.4418 78.2425 79.9761 78.2218 80.5035 78.364C81.036 78.5119 81.5503 78.8332 82.0463 79.328C82.2756 79.5663 82.5021 79.8073 82.7258 80.0509C82.9494 80.2945 83.1729 80.5436 83.3961 80.798C83.8415 81.3287 84.1153 81.8656 84.2173 82.4088C84.3188 82.9629 84.2576 83.5046 84.0337 84.0339C83.8097 84.5632 83.4399 85.0645 82.9244 85.5379C82.4146 86.006 81.8864 86.3291 81.34 86.5072C80.7878 86.6905 80.2401 86.7079 79.6966 86.5595C79.1584 86.4168 78.6467 86.0984 78.1616 85.6041C77.9214 85.3653 77.6895 85.124 77.4658 84.8804C77.2422 84.6368 77.0242 84.3881 76.8119 84.1341C76.3612 83.5977 76.0848 83.058 75.9828 82.5148C75.886 81.9772 75.9522 81.4466 76.1814 80.923C76.4105 80.3993 76.7857 79.8982 77.3069 79.4197ZM78.4304 80.6433C78.1302 80.919 77.9698 81.2333 77.9493 81.5862C77.9231 81.9444 78.0864 82.3269 78.4392 82.7338C78.6567 82.9935 78.8669 83.2338 79.0698 83.4547C79.2726 83.6757 79.489 83.8999 79.7187 84.1274C79.9745 84.3833 80.2232 84.5517 80.4647 84.6328C80.7057 84.7247 80.9391 84.7401 81.1648 84.679C81.3906 84.6179 81.6026 84.4963 81.8009 84.3142C81.9935 84.1374 82.1299 83.9391 82.21 83.7193C82.2902 83.4996 82.2975 83.2631 82.2321 83.01C82.1719 82.7625 82.0253 82.5004 81.7921 82.2237C81.5793 81.9806 81.3715 81.7486 81.1687 81.5276C80.9658 81.3067 80.7471 81.0742 80.5126 80.8301C80.1315 80.4492 79.7642 80.2539 79.4109 80.2443C79.0575 80.2346 78.7306 80.3677 78.4304 80.6433Z" fill="white"/>
<path d="M72.106 83.8506C72.1797 83.8091 72.2533 83.7986 72.3266 83.8191C72.3999 83.8396 72.4573 83.8867 72.4988 83.9604L76.1773 90.4945C76.2188 90.5683 76.2293 90.6418 76.2088 90.7151C76.1883 90.7884 76.1412 90.8458 76.0675 90.8873L74.7405 91.6344C74.6735 91.6721 74.6033 91.6807 74.53 91.6602C74.45 91.6435 74.3892 91.5982 74.3477 91.5245L71.3823 86.257L68.3464 87.9661C68.2727 88.0076 68.1973 88.0147 68.1202 87.9875C68.0402 87.9708 67.9794 87.9256 67.9379 87.8518L67.372 86.8466C67.3305 86.7729 67.3234 86.6975 67.3506 86.6204C67.3711 86.547 67.4182 86.4896 67.4919 86.4481L72.106 83.8506Z" fill="white"/>
<path d="M64.5711 87.7536C64.6518 87.7279 64.7259 87.7326 64.7935 87.7675C64.8611 87.8025 64.9078 87.8603 64.9334 87.9409L67.2074 95.0862C67.2331 95.1668 67.2284 95.241 67.1934 95.3086C67.1585 95.3762 67.1007 95.4228 67.02 95.4485L65.569 95.9103C65.4957 95.9336 65.4253 95.9278 65.3576 95.8928C65.2827 95.8602 65.2324 95.8036 65.2067 95.7229L63.3735 89.9627L60.0537 91.0193C59.9731 91.0449 59.8978 91.0366 59.8279 90.9943C59.7529 90.9616 59.7026 90.905 59.677 90.8244L59.3271 89.7251C59.3015 89.6445 59.3098 89.5692 59.3521 89.4993C59.3871 89.4316 59.4448 89.385 59.5255 89.3593L64.5711 87.7536Z" fill="white"/>
<path d="M57.6195 92.4397C57.7035 92.4298 57.7754 92.4483 57.8352 92.4954C57.895 92.5425 57.9299 92.6081 57.9399 92.6921L58.0678 93.7689C58.0778 93.8529 58.0592 93.9248 58.0121 93.9847C57.965 94.0445 57.8995 94.0794 57.8154 94.0893L54.2299 94.5152C54.1459 94.5252 54.074 94.5066 54.0141 94.4595C53.9543 94.4124 53.9194 94.3468 53.9095 94.2628L53.7816 93.186C53.7716 93.102 53.7902 93.0301 53.8373 92.9703C53.8844 92.9105 53.9499 92.8756 54.0339 92.8656L57.6195 92.4397Z" fill="white"/>
<path d="M47.0153 90.191C47.7813 90.2596 48.4074 90.4239 48.8938 90.6836C49.3794 90.9511 49.7367 91.2727 49.9655 91.6484C50.1944 92.0241 50.2986 92.4118 50.2782 92.8115C50.2728 92.8728 50.245 92.9243 50.1949 92.9662C50.1365 93.015 50.0728 93.0363 50.0038 93.0301L48.5561 92.9003C48.4489 92.8907 48.3701 92.8644 48.32 92.8213C48.2621 92.7775 48.213 92.7229 48.1725 92.6575C48.1215 92.5371 48.0472 92.4185 47.9496 92.3016C47.8443 92.1841 47.7066 92.0829 47.5366 91.9982C47.3583 91.9204 47.1351 91.8696 46.867 91.8455C46.4227 91.8057 46.0833 91.8448 45.8488 91.9627C45.6067 92.08 45.4749 92.2574 45.4536 92.4949C45.4385 92.6634 45.4875 92.8067 45.6004 92.925C45.7127 93.0509 45.9029 93.1683 46.1711 93.2773C46.431 93.3932 46.7828 93.5174 47.2265 93.6498C47.7976 93.8246 48.2815 94.0262 48.6779 94.2548C49.0661 94.4904 49.3533 94.7748 49.5396 95.1081C49.7253 95.449 49.7968 95.8569 49.7542 96.3318C49.7123 96.7991 49.5447 97.2049 49.2513 97.5492C48.9502 97.8929 48.553 98.1468 48.0595 98.3111C47.5661 98.4753 46.9938 98.5283 46.3427 98.4699C45.8142 98.4225 45.3569 98.3121 44.971 98.1385C44.5773 97.9642 44.2529 97.7498 43.9978 97.4953C43.7426 97.2408 43.5578 96.9771 43.4432 96.7043C43.3204 96.4385 43.2661 96.1827 43.2804 95.9369C43.2859 95.8756 43.314 95.8202 43.3648 95.7707C43.4148 95.7289 43.4744 95.711 43.5433 95.7172L45.06 95.8532C45.1442 95.8607 45.2156 95.8826 45.2742 95.9187C45.3327 95.9548 45.3819 96.0094 45.4216 96.0825C45.4525 96.2551 45.562 96.4117 45.7502 96.5521C45.93 96.6994 46.1769 96.7872 46.491 96.8154C46.828 96.8456 47.0978 96.808 47.3003 96.7026C47.4944 96.6042 47.6025 96.4324 47.6245 96.1873C47.6382 96.0341 47.6004 95.8956 47.5111 95.7717C47.4142 95.6472 47.2508 95.5322 47.0209 95.4267C46.7833 95.3204 46.458 95.2025 46.0449 95.0728C45.3595 94.8801 44.8113 94.6649 44.4002 94.4273C43.9884 94.1974 43.697 93.9164 43.526 93.5845C43.3543 93.2603 43.2894 92.8645 43.3313 92.3973C43.3779 91.8764 43.5678 91.4378 43.9009 91.0816C44.2256 90.7324 44.6573 90.4815 45.1961 90.329C45.7348 90.1766 46.3412 90.1305 47.0153 90.191Z" fill="white"/>
<path d="M37.731 88.3681C38.4226 88.6035 38.9776 88.9184 39.3958 89.3126C39.8067 89.7044 40.0762 90.1657 40.2041 90.6967C40.3248 91.2253 40.2894 91.8185 40.098 92.4763C40.0036 92.7773 39.8982 93.0989 39.7817 93.4411C39.6652 93.7832 39.5501 94.1096 39.4362 94.4202C39.1915 95.0437 38.8564 95.5267 38.4311 95.8694C38.0032 96.2193 37.5034 96.4228 36.9315 96.48C36.3571 96.5444 35.7314 96.4614 35.0543 96.2309C34.5738 96.0673 34.1507 95.8543 33.7852 95.5917C33.4171 95.3364 33.1199 95.0403 32.8934 94.7032C32.6644 94.3734 32.522 94.0162 32.4661 93.6316C32.4004 93.2518 32.4333 92.8568 32.5648 92.4466C32.5799 92.3786 32.6203 92.3314 32.6861 92.3051C32.7447 92.2763 32.8067 92.273 32.8723 92.2953L34.3465 92.7972C34.4412 92.8294 34.5078 92.8724 34.5464 92.9262C34.5824 92.9872 34.6001 93.0785 34.5993 93.2001C34.5699 93.6207 34.6481 93.9398 34.834 94.1574C35.0101 94.3798 35.2656 94.5481 35.6005 94.6621C36.001 94.7984 36.3561 94.7933 36.6659 94.647C36.9732 94.5079 37.2258 94.1836 37.4236 93.6741C37.6487 93.0845 37.8568 92.473 38.0481 91.8394C38.2023 91.3151 38.2013 90.9004 38.0451 90.5954C37.8865 90.2977 37.607 90.0807 37.2066 89.9444C36.8717 89.8304 36.5629 89.8065 36.2804 89.8728C35.9979 89.9391 35.7448 90.1454 35.5213 90.4918C35.455 90.5911 35.3902 90.6503 35.3268 90.6693C35.2537 90.6932 35.1698 90.689 35.0752 90.6568L33.6009 90.1549C33.5354 90.1326 33.4882 90.0921 33.4594 90.0336C33.4233 89.9726 33.4201 89.9105 33.4496 89.8475C33.5957 89.4423 33.8119 89.1056 34.0981 88.8374C34.3746 88.5741 34.7054 88.378 35.0905 88.2491C35.4731 88.1275 35.8894 88.0742 36.3392 88.0893C36.7865 88.1116 37.2505 88.2045 37.731 88.3681Z" fill="white"/>
<path d="M31.4436 86.0061C31.5147 86.0518 31.5584 86.1119 31.5745 86.1863C31.5907 86.2607 31.5759 86.3335 31.5301 86.4047L27.4731 92.7108C27.4274 92.7819 27.3673 92.8256 27.2929 92.8417C27.2185 92.8579 27.1457 92.8431 27.0746 92.7973L24.4357 91.0996C23.6013 90.5629 23.0697 89.9465 22.8407 89.2505C22.6011 88.5568 22.7081 87.8575 23.1616 87.1525C23.4571 86.6933 23.8199 86.378 24.2502 86.2067C24.674 86.0313 25.119 85.9792 25.5852 86.0505L25.7818 82.8026C25.7873 82.7513 25.8005 82.7095 25.8213 82.6771C25.8546 82.6254 25.9085 82.5914 25.9829 82.5753C26.0466 82.5615 26.1076 82.5733 26.1658 82.6107L27.4465 83.4346C27.5694 83.5136 27.6412 83.601 27.6619 83.6967C27.6785 83.7988 27.6831 83.884 27.6757 83.9524L27.4086 86.7983L28.4079 87.4412L29.7935 85.2874C29.8392 85.2163 29.8993 85.1726 29.9737 85.1565C30.0481 85.1403 30.1209 85.1552 30.1921 85.2009L31.4436 86.0061ZM27.5278 88.8092L26.4024 88.0852C26.0984 87.8896 25.8242 87.8183 25.5797 87.8714C25.3288 87.9203 25.1201 88.0741 24.9537 88.3328C24.7914 88.5851 24.7347 88.8366 24.7836 89.0876C24.826 89.3343 25.0057 89.5597 25.3226 89.7636L26.448 90.4876L27.5278 88.8092Z" fill="white"/>
<path d="M21.5431 78.283C22.0284 78.7979 22.3664 79.3248 22.5572 79.8636C22.7479 80.4025 22.7756 80.9365 22.6403 81.4656C22.4993 82 22.1847 82.5184 21.6965 83.0208C21.4611 83.2532 21.223 83.4828 20.9824 83.7096C20.7417 83.9364 20.4956 84.1631 20.2441 84.3896C19.7192 84.8419 19.1859 85.1226 18.6441 85.2317C18.0913 85.3404 17.5489 85.2862 17.0167 85.0692C16.4845 84.8521 15.9785 84.4889 15.4985 83.9796C15.0238 83.4758 14.6938 82.9519 14.5087 82.4078C14.3182 81.8581 14.2936 81.3106 14.4349 80.7653C14.5706 80.2253 14.8824 79.7095 15.3703 79.218C15.6061 78.9747 15.8443 78.7397 16.0849 78.5129C16.3256 78.2861 16.5715 78.0649 16.8227 77.8493C17.3532 77.3917 17.8893 77.1083 18.4311 76.9993C18.9674 76.8955 19.4988 76.9548 20.0254 77.1771C20.552 77.3995 21.0579 77.7681 21.5431 78.283ZM20.3342 79.4223C20.0547 79.1257 19.7383 78.9694 19.3851 78.9535C19.0267 78.932 18.6463 79.1003 18.244 79.4583C17.9872 79.6792 17.7496 79.8925 17.5313 80.0982C17.3131 80.3039 17.0917 80.5231 16.8671 80.7558C16.6146 81.0149 16.4494 81.2657 16.3715 81.5082C16.2827 81.7504 16.2704 81.984 16.3344 82.209C16.3985 82.4339 16.5228 82.6444 16.7074 82.8403C16.8867 83.0306 17.0868 83.1643 17.3076 83.2416C17.5283 83.3189 17.7649 83.3232 18.0172 83.2545C18.2639 83.1911 18.524 83.041 18.7976 82.8043C19.038 82.5884 19.2673 82.3775 19.4856 82.1718C19.7039 81.9661 19.9335 81.7444 20.1745 81.5068C20.5504 81.1207 20.7409 80.751 20.746 80.3975C20.751 80.044 20.6138 79.719 20.3342 79.4223Z" fill="white"/>
<path d="M17.045 73.1401C17.0874 73.2133 17.0989 73.2867 17.0793 73.3602C17.0598 73.4338 17.0134 73.4919 16.9403 73.5343L10.4548 77.298C10.3816 77.3404 10.3083 77.3519 10.2347 77.3323C10.1611 77.3128 10.1031 77.2665 10.0606 77.1933L9.2963 75.8762C9.2577 75.8097 9.24817 75.7397 9.26771 75.6661C9.28339 75.5858 9.32782 75.5245 9.40099 75.482L14.6293 72.448L12.8806 69.4347C12.8382 69.3615 12.83 69.2862 12.8562 69.2088C12.8719 69.1286 12.9163 69.0672 12.9895 69.0247L13.9873 68.4457C14.0604 68.4033 14.1357 68.3951 14.2132 68.4213C14.2868 68.4409 14.3448 68.4872 14.3872 68.5604L17.045 73.1401Z" fill="white"/>
<path d="M13.0435 65.6569C13.0702 65.7372 13.0665 65.8113 13.0324 65.8794C12.9984 65.9475 12.9412 65.9949 12.8609 66.0216L5.74618 68.3895C5.66591 68.4162 5.59174 68.4125 5.52366 68.3784C5.45558 68.3443 5.40818 68.2872 5.38147 68.2069L4.90061 66.762C4.87632 66.6891 4.88122 66.6185 4.9153 66.5505C4.94695 66.4751 5.00291 66.424 5.08318 66.3973L10.8188 64.4885L9.71862 61.1829C9.6919 61.1026 9.69924 61.0272 9.74061 60.9567C9.77226 60.8813 9.82822 60.8303 9.90849 60.8035L11.0031 60.4393C11.0833 60.4126 11.1587 60.4199 11.2292 60.4613C11.2973 60.4953 11.3447 60.5525 11.3714 60.6328L13.0435 65.6569Z" fill="white"/>
<path d="M8.26576 58.7655C8.27683 58.8494 8.2592 58.9215 8.21288 58.982C8.16655 59.0424 8.10145 59.0781 8.01758 59.0892L6.94252 59.2311C6.85865 59.2422 6.7865 59.2245 6.72609 59.1782C6.66567 59.1319 6.62993 59.0668 6.61886 58.9829L6.14637 55.4032C6.1353 55.3193 6.15292 55.2472 6.19925 55.1867C6.24558 55.1263 6.31068 55.0906 6.39455 55.0795L7.46961 54.9376C7.55348 54.9265 7.62562 54.9442 7.68604 54.9905C7.74646 55.0368 7.7822 55.1019 7.79327 55.1858L8.26576 58.7655Z" fill="white"/>
<path d="M10.3772 48.1368C10.3185 48.9036 10.1624 49.5319 9.90901 50.0216C9.64792 50.5107 9.33102 50.8721 8.95834 51.1058C8.58565 51.3396 8.19935 51.4488 7.79942 51.4337C7.73808 51.429 7.68616 51.4019 7.64367 51.3523C7.5941 51.2945 7.57195 51.2312 7.57723 51.1621L7.6881 49.7128C7.69631 49.6055 7.72165 49.5264 7.76409 49.4757C7.80713 49.4173 7.86108 49.3674 7.92594 49.3261C8.04566 49.2735 8.1633 49.1977 8.27887 49.0985C8.39503 48.9917 8.49436 48.8528 8.57687 48.6817C8.65229 48.5024 8.70027 48.2785 8.7208 48.0101C8.75483 47.5653 8.71133 47.2265 8.59031 46.9935C8.46988 46.7529 8.29081 46.6235 8.05309 46.6054C7.88439 46.5924 7.74167 46.6432 7.62493 46.7577C7.50052 46.8716 7.38558 47.0634 7.28011 47.333C7.16756 47.5943 7.04796 47.9477 6.92133 48.3931C6.75406 48.9665 6.55873 49.4529 6.33534 49.8523C6.10488 50.2435 5.82423 50.5344 5.4934 50.725C5.15491 50.9151 4.74795 50.992 4.27251 50.9556C3.80475 50.9198 3.3968 50.7575 3.04867 50.4686C2.70112 50.1721 2.44201 49.7781 2.27134 49.2869C2.10067 48.7956 2.04026 48.2241 2.09013 47.5723C2.1306 47.0431 2.23511 46.5845 2.40364 46.1963C2.57276 45.8004 2.78291 45.4733 3.03407 45.2148C3.28524 44.9564 3.54646 44.7681 3.81775 44.65C4.08194 44.5237 4.33703 44.4661 4.583 44.4772C4.64435 44.4819 4.7001 44.5093 4.75026 44.5594C4.79275 44.6089 4.81135 44.6682 4.80607 44.7372L4.68992 46.2555C4.68347 46.3399 4.66256 46.4115 4.62719 46.4705C4.59183 46.5295 4.53788 46.5794 4.46534 46.6201C4.29312 46.6532 4.13804 46.7648 4.00009 46.9548C3.85507 47.1365 3.77053 47.3846 3.74648 47.699C3.72066 48.0364 3.76177 48.3056 3.8698 48.5067C3.97074 48.6996 4.14391 48.8054 4.38929 48.8241C4.54266 48.8359 4.68067 48.7963 4.80332 48.7054C4.92655 48.6068 5.03944 48.4419 5.14198 48.2107C5.2451 47.9717 5.3588 47.6449 5.48309 47.2302C5.66683 46.5424 5.87482 45.9914 6.10704 45.5772C6.3316 45.1624 6.60871 44.8674 6.93836 44.6921C7.26034 44.5161 7.65522 44.4461 8.12298 44.4819C8.64443 44.5218 9.08542 44.7059 9.44595 45.0343C9.7994 45.3544 10.0559 45.7829 10.2154 46.3195C10.3748 46.8562 10.4288 47.462 10.3772 48.1368Z" fill="white"/>
<path d="M12.0785 38.8268C11.8522 39.5215 11.5447 40.0805 11.156 40.5039C10.7697 40.92 10.3119 41.1955 9.78259 41.3304C9.2557 41.458 8.66209 41.4304 8.00176 41.2476C7.69957 41.1573 7.37663 41.0561 7.03295 40.9441C6.68927 40.8322 6.36141 40.7213 6.04936 40.6115C5.42271 40.375 4.93528 40.0463 4.58707 39.6255C4.23155 39.2023 4.02145 38.7052 3.95677 38.1341C3.88478 37.5606 3.95957 36.9338 4.18114 36.2538C4.33838 35.7712 4.54586 35.3454 4.80359 34.9764C5.054 34.605 5.34624 34.3039 5.6803 34.073C6.00704 33.8397 6.36234 33.6926 6.7462 33.6316C7.12512 33.561 7.52052 33.5887 7.93239 33.7148C8.00059 33.7289 8.04828 33.7687 8.07548 33.8342C8.10506 33.8924 8.10913 33.9544 8.08768 34.0202L7.60524 35.5009C7.57427 35.596 7.53216 35.6632 7.47893 35.7024C7.41837 35.7393 7.3273 35.7582 7.2057 35.759C6.78479 35.7351 6.46675 35.8175 6.25158 36.0063C6.03148 36.1853 5.86663 36.443 5.75704 36.7794C5.626 37.1815 5.63571 37.5366 5.78615 37.8444C5.92929 38.1499 6.25687 38.3982 6.7689 38.5893C7.36136 38.8065 7.9756 39.0067 8.61161 39.1896C9.13794 39.3368 9.55256 39.3304 9.85548 39.1702C10.1511 39.0077 10.3644 38.7254 10.4954 38.3232C10.605 37.9868 10.6248 37.6778 10.5548 37.3962C10.4848 37.1145 10.2752 36.8642 9.9259 36.6453C9.82575 36.5803 9.76573 36.5163 9.74584 36.4532C9.72103 36.3804 9.7241 36.2964 9.75508 36.2014L10.2375 34.7206C10.259 34.6548 10.2988 34.6071 10.3569 34.5775C10.4175 34.5406 10.4795 34.5366 10.5429 34.5653C10.95 34.7061 11.2895 34.9178 11.5614 35.2005C11.8283 35.4735 12.0288 35.8017 12.1627 36.185C12.2893 36.566 12.3481 36.9815 12.339 37.4315C12.3226 37.8791 12.2357 38.3442 12.0785 38.8268Z" fill="white"/>
<path d="M14.358 32.5082C14.3131 32.5799 14.2536 32.6243 14.1794 32.6414C14.1053 32.6586 14.0323 32.6447 13.9606 32.5999L7.6021 28.6254C7.53036 28.5806 7.48593 28.521 7.46882 28.4469C7.4517 28.3727 7.46556 28.2997 7.5104 28.228L9.17356 25.5672C9.69941 24.7259 10.3088 24.1863 11.0017 23.9483C11.6922 23.6997 12.3929 23.7975 13.1038 24.2419C13.5668 24.5313 13.8867 24.89 14.0636 25.318C14.2446 25.7395 14.3024 26.1837 14.2372 26.6509L17.4874 26.8051C17.5388 26.81 17.5808 26.8226 17.6134 26.843C17.6656 26.8756 17.7002 26.929 17.7173 27.0032C17.732 27.0668 17.721 27.1279 17.6843 27.1866L16.8772 28.4779C16.7997 28.6018 16.7133 28.6747 16.6179 28.6967C16.516 28.7147 16.4308 28.7204 16.3624 28.7139L13.5132 28.4838L12.8834 29.4914L15.0551 30.8488C15.1268 30.8937 15.1712 30.9532 15.1883 31.0274C15.2055 31.1016 15.1916 31.1745 15.1468 31.2463L14.358 32.5082ZM11.5041 28.6293L12.2134 27.4945C12.405 27.188 12.4727 26.9129 12.4164 26.6691C12.3643 26.4188 12.2077 26.2122 11.9469 26.0491C11.6925 25.8901 11.4402 25.8367 11.19 25.8889C10.9438 25.9345 10.7208 26.1171 10.5211 26.4367L9.81178 27.5714L11.5041 28.6293Z" fill="white"/>
<path d="M21.9508 22.5091C21.4422 23.001 20.9198 23.3459 20.3835 23.5436C19.8472 23.7413 19.3136 23.776 18.7827 23.6475C18.2465 23.5135 17.724 23.2056 17.2154 22.724C16.9799 22.4916 16.7473 22.2566 16.5173 22.0189C16.2874 21.7812 16.0576 21.538 15.8279 21.2895C15.3688 20.7706 15.0812 20.2409 14.9651 19.7005C14.8491 19.1493 14.8963 18.6062 15.1064 18.0712C15.3166 17.5363 15.6732 17.0255 16.1762 16.539C16.6737 16.0577 17.1933 15.721 17.7349 15.5288C18.2821 15.3312 18.8293 15.2996 19.3763 15.4338C19.9181 15.5624 20.4379 15.8675 20.9357 16.349C21.182 16.5815 21.4201 16.8166 21.65 17.0543C21.8799 17.292 22.1043 17.5351 22.3232 17.7835C22.7876 18.3079 23.0779 18.8403 23.194 19.3807C23.3047 19.9156 23.2524 20.4477 23.0369 20.9771C22.8214 21.5065 22.4594 22.0172 21.9508 22.5091ZM20.7959 21.3151C21.0888 21.0317 21.241 20.7133 21.2523 20.36C21.2692 20.0013 21.096 19.6231 20.7328 19.2255C20.5086 18.9716 20.2922 18.7368 20.0837 18.5212C19.8751 18.3056 19.6531 18.0871 19.4174 17.8656C19.1551 17.6165 18.9021 17.4546 18.6586 17.3798C18.4153 17.2942 18.1816 17.2848 17.9575 17.3518C17.7334 17.4188 17.5246 17.5458 17.3311 17.733C17.1432 17.9148 17.012 18.1166 16.9376 18.3383C16.8632 18.5601 16.862 18.7966 16.9339 19.048C17.0005 19.2939 17.154 19.5521 17.3942 19.8226C17.6133 20.0601 17.827 20.2866 18.0356 20.5022C18.2441 20.7178 18.4688 20.9446 18.7095 21.1824C19.1004 21.5534 19.4726 21.739 19.8261 21.7395C20.1796 21.7399 20.5029 21.5985 20.7959 21.3151Z" fill="white"/>
<path d="M27.0352 17.9442C26.9626 17.9876 26.8894 18 26.8155 17.9814C26.7417 17.9629 26.6831 17.9173 26.6397 17.8447L22.7916 11.4089C22.7482 11.3363 22.7358 11.2631 22.7544 11.1893C22.7729 11.1154 22.8185 11.0568 22.8911 11.0134L24.1981 10.2319C24.2641 10.1925 24.334 10.182 24.4078 10.2006C24.4883 10.2152 24.5502 10.2589 24.5936 10.3315L27.6957 15.5197L30.6859 13.7318C30.7585 13.6884 30.8337 13.6793 30.9115 13.7044C30.9919 13.7191 31.0538 13.7627 31.0972 13.8353L31.6893 14.8254C31.7327 14.898 31.7418 14.9732 31.7166 15.051C31.698 15.1248 31.6524 15.1834 31.5798 15.2269L27.0352 17.9442Z" fill="white"/>
<path d="M34.4658 13.845C34.3859 13.8728 34.3116 13.87 34.2431 13.8369C34.1746 13.8037 34.1265 13.7471 34.0987 13.6672L31.6375 6.58422C31.6098 6.50431 31.6125 6.43009 31.6456 6.36157C31.6788 6.29304 31.7354 6.2449 31.8153 6.21713L33.2537 5.71733C33.3263 5.69208 33.3969 5.69605 33.4654 5.72924C33.5412 5.75989 33.593 5.81518 33.6208 5.89509L35.6048 11.6051L38.8957 10.4616C38.9756 10.4338 39.0511 10.4402 39.1222 10.4806C39.1979 10.5113 39.2497 10.5665 39.2775 10.6465L39.6561 11.7362C39.6839 11.8161 39.6775 11.8915 39.6371 11.9626C39.6039 12.0311 39.5474 12.0793 39.4675 12.107L34.4658 13.845Z" fill="white"/>
<path d="M41.3052 8.96844C41.2215 8.98039 41.1491 8.96351 41.0882 8.91782C41.0273 8.87212 40.9909 8.8074 40.979 8.72365L40.8259 7.65013C40.8139 7.56638 40.8308 7.49406 40.8765 7.43316C40.9222 7.37226 40.9869 7.33584 41.0706 7.3239L44.6453 6.81406C44.729 6.80212 44.8013 6.81899 44.8622 6.86468C44.9231 6.91038 44.9595 6.9751 44.9715 7.05885L45.1246 8.13237C45.1365 8.21612 45.1197 8.28845 45.074 8.34934C45.0283 8.41024 44.9636 8.44666 44.8798 8.45861L41.3052 8.96844Z" fill="white"/>
</svg>
