<svg width="100" height="100" viewBox="0 0 100 100" fill="none" xmlns="http://www.w3.org/2000/svg">
<circle cx="50" cy="50" r="36.5" stroke="white"/>
<path d="M52.7964 11.2264C52.6496 11.2053 52.5393 11.1454 52.4654 11.0466C52.3915 10.9478 52.354 10.8411 52.3529 10.7264L52.1349 2.24738C52.1287 2.22887 52.1269 2.21098 52.1294 2.19371C52.1319 2.17644 52.1337 2.16349 52.135 2.15486C52.145 2.08578 52.1796 2.02907 52.2389 1.98472C52.308 1.93297 52.3771 1.91207 52.4462 1.922L54.0523 2.15304C54.294 2.18781 54.4142 2.30204 54.4127 2.49572L54.5241 7.6808L55.8882 4.82319C55.9241 4.75784 55.9778 4.69066 56.0495 4.62165C56.1224 4.544 56.2279 4.51511 56.3661 4.53499L57.2986 4.66914C57.4454 4.69025 57.5428 4.74833 57.5908 4.84337C57.64 4.92977 57.6683 5.00875 57.6756 5.08031L58.1785 8.19326L59.7489 3.26335C59.8022 3.07712 59.9498 3.0014 60.1915 3.03618L61.7976 3.26721C61.8753 3.27839 61.9357 3.31792 61.9788 3.38582C62.0231 3.44507 62.0403 3.50924 62.0304 3.57831C62.0291 3.58695 62.0272 3.5999 62.0247 3.61717C62.0223 3.63444 62.0198 3.6517 62.0173 3.66897L59.4118 11.7418C59.3783 11.8515 59.3122 11.9434 59.2134 12.0173C59.1146 12.0912 58.9918 12.1176 58.845 12.0965L57.6146 11.9195C57.4678 11.8984 57.3611 11.8434 57.2946 11.7545C57.2281 11.6656 57.1869 11.5848 57.171 11.512L56.3971 7.61972L54.5546 11.1356C54.5188 11.201 54.4564 11.2669 54.3675 11.3334C54.2872 11.4012 54.1736 11.4245 54.0268 11.4034L52.7964 11.2264Z" fill="white"/>
<path d="M62.3894 13.2246C62.2988 13.1929 62.2348 13.1382 62.1973 13.0605C62.1599 12.9827 62.157 12.8985 62.1887 12.808L64.9998 4.78045C65.0315 4.68988 65.0862 4.62584 65.1641 4.58834C65.2419 4.55084 65.3261 4.54791 65.4167 4.57955L67.0721 5.15767C67.1627 5.1893 67.2267 5.24401 67.2642 5.32177C67.3017 5.39954 67.3046 5.48371 67.2728 5.57427L64.4618 13.6018C64.4301 13.6924 64.3753 13.7564 64.2975 13.7939C64.2196 13.8314 64.1354 13.8343 64.0448 13.8027L62.3894 13.2246Z" fill="white"/>
<path d="M66.0698 14.581C65.985 14.5362 65.9299 14.4725 65.9045 14.39C65.8791 14.3075 65.8889 14.2239 65.9338 14.1391L69.9172 6.62407C69.9622 6.53929 70.0259 6.48419 70.1085 6.45877C70.1911 6.43335 70.2748 6.44307 70.3597 6.48792L71.8867 7.29514C71.9638 7.33591 72.0151 7.39755 72.0405 7.48004C72.0736 7.56661 72.0676 7.65228 72.0227 7.73707L68.8115 13.7953L72.3051 15.6422C72.39 15.687 72.443 15.7546 72.4643 15.8448C72.4974 15.9313 72.4915 16.017 72.4466 16.1018L71.8337 17.258C71.7888 17.3427 71.7212 17.3958 71.6309 17.4171C71.5483 17.4426 71.4646 17.4328 71.3798 17.388L66.0698 14.581Z" fill="white"/>
<path d="M72.8252 18.507C72.7503 18.4469 72.7081 18.374 72.6987 18.2882C72.6894 18.2025 72.7147 18.1222 72.7748 18.0474L78.1031 11.4177C78.1632 11.3429 78.2362 11.3008 78.3221 11.2913C78.408 11.2819 78.4884 11.3072 78.5633 11.3673L79.911 12.4475C79.9791 12.5021 80.0178 12.5723 80.0272 12.658C80.0434 12.7493 80.0215 12.8323 79.9614 12.9071L75.666 18.2517L78.7495 20.7232C78.8244 20.7832 78.8638 20.8595 78.8677 20.9521C78.8839 21.0433 78.862 21.1264 78.8019 21.2012L77.9821 22.2211C77.922 22.2959 77.8456 22.3353 77.7529 22.3392C77.667 22.3486 77.5866 22.3233 77.5117 22.2633L72.8252 18.507Z" fill="white"/>
<path d="M80.1844 20.9323C80.121 20.8603 80.0921 20.7812 80.0976 20.6951C80.1032 20.6089 80.142 20.5342 80.2141 20.4709L81.1385 19.6594C81.2106 19.5961 81.2898 19.5673 81.376 19.5728C81.4623 19.5784 81.5371 19.6171 81.6005 19.6892L84.3067 22.7635C84.3701 22.8355 84.399 22.9146 84.3935 23.0007C84.3879 23.0869 84.3491 23.1616 84.277 23.2249L83.3526 24.0364C83.2805 24.0997 83.2013 24.1285 83.1151 24.123C83.0288 24.1174 82.954 24.0787 82.8906 24.0066L80.1844 20.9323Z" fill="white"/>
<path d="M82.4659 28.1921C82.4245 28.1153 82.4141 28.0317 82.4348 27.9414C82.4595 27.8587 82.5142 27.7946 82.5987 27.7492L90.089 23.7194C90.1735 23.6739 90.2571 23.6636 90.3399 23.6884C90.4268 23.7209 90.4909 23.7755 90.5324 23.8523L91.2033 25.0961C91.2696 25.2189 91.2847 25.3297 91.2487 25.4283C91.2245 25.5304 91.1974 25.5995 91.1673 25.6356L88.6193 29.6215L93.3541 29.6894C93.405 29.6917 93.4756 29.7032 93.5661 29.7239C93.6683 29.7481 93.7547 29.8255 93.8251 29.956L94.4898 31.1883C94.5354 31.2728 94.5458 31.3563 94.521 31.439C94.5004 31.5293 94.4478 31.5973 94.3633 31.6427L86.873 35.6725C86.7885 35.718 86.7028 35.7245 86.6159 35.692C86.5331 35.6672 86.469 35.6125 86.4234 35.5281L85.6841 34.1576C85.6385 34.0732 85.6261 33.9858 85.6467 33.8954C85.6715 33.8127 85.7261 33.7487 85.8106 33.7032L90.132 31.3783L87.0215 31.3727C86.9358 31.3792 86.8495 31.3662 86.7626 31.3337C86.6757 31.3012 86.6032 31.2312 86.5452 31.1237L86.2222 30.5249C86.1642 30.4174 86.1455 30.3184 86.1662 30.2281C86.1868 30.1377 86.2213 30.0548 86.2698 29.9792L87.9762 27.3821L83.6548 29.707C83.5703 29.7524 83.4867 29.7628 83.4039 29.738C83.3212 29.7131 83.257 29.6585 83.2114 29.5741L82.4659 28.1921Z" fill="white"/>
<path d="M87.895 41.4729C87.7098 40.692 87.6761 39.9829 87.7939 39.3454C87.9117 38.708 88.1871 38.1678 88.62 37.7248C89.0613 37.2798 89.6643 36.9489 90.4287 36.7323C90.7918 36.6375 91.1558 36.5469 91.5209 36.4606C91.8859 36.3742 92.2562 36.2911 92.6318 36.2113C93.4039 36.0646 94.0871 36.0912 94.6814 36.2913C95.2863 36.4979 95.7887 36.8587 96.1887 37.3736C96.5888 37.8886 96.8804 38.5323 97.0635 39.3047C97.2447 40.0686 97.2721 40.7703 97.1458 41.4098C97.0215 42.0577 96.7355 42.6094 96.2876 43.0649C95.8483 43.5184 95.2496 43.8482 94.4916 44.0544C94.1221 44.1597 93.7548 44.2555 93.3897 44.3419C93.0247 44.4282 92.6576 44.506 92.2886 44.5754C91.508 44.7241 90.8205 44.6984 90.2262 44.4984C89.6403 44.2963 89.1516 43.9367 88.7601 43.4198C88.3685 42.9028 88.0802 42.2539 87.895 41.4729ZM89.7287 41.0393C89.8354 41.4892 90.0577 41.822 90.3958 42.0379C90.7359 42.2623 91.2051 42.3127 91.8034 42.1891C92.181 42.1177 92.5353 42.0429 92.8664 41.9646C93.1975 41.8863 93.5393 41.7965 93.8918 41.6952C94.2868 41.5839 94.5913 41.4312 94.8052 41.2372C95.0297 41.0496 95.1742 40.8272 95.2387 40.5699C95.3033 40.3126 95.3003 40.0354 95.2298 39.7383C95.1614 39.4497 95.0406 39.2049 94.8674 39.0038C94.6942 38.8028 94.4641 38.6644 94.1773 38.5889C93.8989 38.5113 93.5581 38.5112 93.1551 38.5885C92.7966 38.6644 92.4517 38.7414 92.1206 38.8197C91.7895 38.898 91.4382 38.9856 91.0667 39.0824C90.4785 39.2484 90.0818 39.5036 89.8765 39.848C89.6713 40.1923 89.622 40.5894 89.7287 41.0393Z" fill="white"/>
<path d="M88.9928 49.4135C88.9931 49.2652 89.0326 49.1475 89.1112 49.0604C89.1899 48.9733 89.2817 48.9125 89.3864 48.8778L97.7665 46.2256C97.8102 46.2082 97.8495 46.1996 97.8843 46.1996C97.9541 46.1998 98.0151 46.2261 98.0674 46.2785C98.1283 46.3397 98.1587 46.4096 98.1585 46.4881L98.1552 48.1107C98.1549 48.2502 98.1154 48.3592 98.0368 48.4376C97.9581 48.5159 97.8838 48.5637 97.814 48.581L91.7648 50.4137L97.8064 52.2842C97.8761 52.3105 97.9502 52.3586 98.0286 52.4286C98.1069 52.5073 98.1459 52.6164 98.1457 52.756L98.1423 54.3785C98.1422 54.4571 98.1115 54.5224 98.0503 54.5746C97.9978 54.6356 97.9367 54.666 97.8669 54.6659C97.832 54.6658 97.7928 54.657 97.7492 54.6394L89.3801 51.9528C89.2755 51.9177 89.184 51.8565 89.1057 51.7691C89.0273 51.6904 88.9883 51.5726 88.9886 51.4155L88.9928 49.4135Z" fill="white"/>
<path d="M88.6016 56.2238C88.623 56.1303 88.6703 56.0605 88.7434 56.0146C88.8166 55.9687 88.8999 55.9564 88.9935 55.9777L97.2858 57.8701C97.3793 57.8915 97.4491 57.9387 97.495 58.0118C97.5409 58.0849 97.5531 58.1683 97.5317 58.2618L96.1686 64.2187C96.1472 64.3122 96.0999 64.382 96.0268 64.4279C95.9536 64.4739 95.8703 64.4861 95.7767 64.4648L94.5775 64.1911C94.484 64.1698 94.4142 64.1225 94.3683 64.0494C94.3224 63.9763 94.3102 63.893 94.3316 63.7995L95.2627 59.7304L93.5404 59.3374L92.6735 63.1258C92.6521 63.2193 92.6006 63.2881 92.5189 63.3321C92.4458 63.378 92.3624 63.3903 92.2689 63.369L91.159 63.1157C91.0739 63.0963 91.0042 63.0491 90.9498 62.974C90.9039 62.9009 90.8916 62.8176 90.913 62.724L91.7799 58.9356L90.0066 58.5309L89.0522 62.702C89.0308 62.7955 88.9835 62.8653 88.9103 62.9112C88.8372 62.9572 88.7538 62.9695 88.6603 62.9481L87.4611 62.6744C87.3675 62.6531 87.2978 62.6059 87.2519 62.5327C87.206 62.4596 87.1937 62.3763 87.2151 62.2828L88.6016 56.2238Z" fill="white"/>
<path d="M89.2303 65.1542C89.269 65.0664 89.3287 65.0069 89.4092 64.9756C89.4898 64.9443 89.574 64.948 89.6618 64.9867L90.7876 65.4822C90.8754 65.5209 90.935 65.5804 90.9662 65.6609C90.9974 65.7414 90.9937 65.8255 90.9549 65.9133L89.3012 69.6603C89.2625 69.7481 89.2028 69.8076 89.1223 69.8389C89.0417 69.8701 88.9575 69.8665 88.8697 69.8278L87.7439 69.3323C87.6561 69.2936 87.5966 69.2341 87.5653 69.1536C87.5341 69.0731 87.5378 68.989 87.5766 68.9012L89.2303 65.1542Z" fill="white"/>
<path d="M82.9794 71.0548C83.0683 70.9361 83.1738 70.868 83.296 70.8503C83.4182 70.8327 83.5299 70.8508 83.6313 70.9047L91.1854 74.7668C91.2046 74.7703 91.2212 74.7772 91.2352 74.7877C91.2492 74.7981 91.2597 74.8059 91.2666 74.8112C91.3226 74.8529 91.3558 74.9104 91.3664 74.9836C91.3787 75.069 91.3639 75.1397 91.3221 75.1955L90.3494 76.4943C90.203 76.6898 90.045 76.7406 89.8756 76.6467L85.2666 74.2657L87.1235 76.8287C87.1638 76.8914 87.197 76.9707 87.2233 77.0665C87.2566 77.1676 87.2314 77.274 87.1478 77.3857L86.583 78.1398C86.4941 78.2585 86.3964 78.3162 86.2899 78.3129C86.1904 78.3148 86.1074 78.3018 86.0411 78.2741L83.065 77.2271L86.6438 80.9618C86.7819 81.0976 86.7777 81.2633 86.6313 81.4588L85.6586 82.7575C85.6116 82.8203 85.5479 82.8544 85.4676 82.8598C85.3943 82.8704 85.3297 82.8548 85.2737 82.813C85.2668 82.8078 85.2563 82.8 85.2423 82.7895C85.2283 82.7791 85.2143 82.7686 85.2004 82.7582L79.3562 76.6129C79.2758 76.531 79.2268 76.4291 79.2092 76.3071C79.1916 76.1851 79.2273 76.0647 79.3162 75.946L80.0614 74.951C80.1503 74.8323 80.2497 74.765 80.3597 74.7492C80.4696 74.7333 80.5604 74.7358 80.632 74.7566L84.4226 75.9383L82.2165 72.6409C82.1763 72.5782 82.1483 72.4919 82.1324 72.3821C82.1114 72.2793 82.1453 72.1685 82.2342 72.0498L82.9794 71.0548Z" fill="white"/>
<path d="M76.6312 78.5115C76.7023 78.4471 76.781 78.4169 76.8673 78.4211C76.9536 78.4252 77.0291 78.4628 77.0936 78.5338L82.8166 84.8259C82.8812 84.8969 82.9114 84.9755 82.9072 85.0617C82.9031 85.1479 82.8655 85.2232 82.7944 85.2877L81.4957 86.4658C81.4246 86.5302 81.3459 86.5604 81.2596 86.5562C81.1733 86.5521 81.0978 86.5145 81.0333 86.4435L75.3103 80.1514C75.2457 80.0804 75.2155 80.0018 75.2196 79.9156C75.2238 79.8294 75.2614 79.7541 75.3325 79.6896L76.6312 78.5115Z" fill="white"/>
<path d="M73.6771 81.0964C73.757 81.0432 73.8393 81.0251 73.924 81.042C74.0088 81.0589 74.0778 81.1073 74.1311 81.1871L78.8551 88.2601C78.9083 88.3399 78.9265 88.4221 78.9096 88.5067C78.8927 88.5914 78.8443 88.6603 78.7645 88.7135L77.3269 89.671C77.2543 89.7194 77.1756 89.7351 77.0909 89.7182C76.9989 89.7061 76.9263 89.6601 76.873 89.5803L73.0647 83.8784L69.7757 86.0691C69.6959 86.1223 69.6112 86.1368 69.5216 86.1127C69.4296 86.1006 69.3569 86.0546 69.3036 85.9748L68.5769 84.8867C68.5236 84.8069 68.509 84.7222 68.5332 84.6328C68.5501 84.5481 68.5985 84.4792 68.6783 84.426L73.6771 81.0964Z" fill="white"/>
<path d="M66.9959 85.1631C67.0844 85.126 67.1686 85.1237 67.2486 85.1564C67.3286 85.189 67.3872 85.2496 67.4244 85.338L70.7234 93.1777C70.7606 93.2661 70.7629 93.3503 70.7303 93.4302C70.6977 93.5101 70.6371 93.5687 70.5487 93.6058L68.956 94.2742C68.8755 94.308 68.7953 94.3085 68.7153 94.2759C68.6273 94.2466 68.5647 94.1877 68.5274 94.0993L65.8679 87.7793L62.224 89.3085C62.1356 89.3457 62.0496 89.3439 61.9663 89.3032C61.8782 89.2739 61.8156 89.2151 61.7784 89.1266L61.2708 87.9205C61.2336 87.8321 61.2353 87.7462 61.276 87.6629C61.3086 87.583 61.3692 87.5245 61.4577 87.4873L66.9959 85.1631Z" fill="white"/>
<path d="M61.3432 90.4667C61.4368 90.4456 61.5202 90.4581 61.5932 90.5042C61.6662 90.5504 61.7133 90.6202 61.7345 90.7138L62.0059 91.9135C62.0271 92.0071 62.0146 92.0904 61.9685 92.1634C61.9224 92.2364 61.8526 92.2835 61.759 92.3046L57.7637 93.206C57.6701 93.2271 57.5868 93.2146 57.5137 93.1685C57.4407 93.1224 57.3936 93.0525 57.3724 92.9589L57.101 91.7592C57.0798 91.6656 57.0923 91.5823 57.1384 91.5093C57.1845 91.4363 57.2543 91.3892 57.3479 91.3681L61.3432 90.4667Z" fill="white"/>
<path d="M53.8487 88.9841C53.9359 88.9846 54.0143 89.0155 54.0838 89.0769C54.1445 89.1382 54.1747 89.2169 54.1742 89.3128L54.1332 97.8182C54.1327 97.9142 54.1018 97.9926 54.0405 98.0533C53.9704 98.1141 53.8917 98.1442 53.8045 98.1438L52.3913 98.137C52.2517 98.1363 52.1472 98.0966 52.0778 98.0177C51.9996 97.9475 51.9519 97.8906 51.9347 97.8469L49.6516 93.7009L47.3287 97.8247C47.3023 97.8682 47.2584 97.9247 47.197 97.9942C47.1268 98.0724 47.0176 98.1111 46.8693 98.1104L45.4692 98.1037C45.3732 98.1032 45.2949 98.0723 45.2341 98.0109C45.1646 97.9495 45.1301 97.8709 45.1306 97.7749L45.1716 89.2695C45.1721 89.1736 45.2073 89.0952 45.2774 89.0345C45.3388 88.9737 45.4174 88.9436 45.5134 88.944L47.0705 88.9515C47.1665 88.952 47.2492 88.9829 47.3187 89.0443C47.3795 89.1057 47.4096 89.1843 47.4092 89.2803L47.3855 94.1872L48.8773 91.4595C48.9126 91.3812 48.9653 91.3117 49.0354 91.2509C49.1054 91.1902 49.2015 91.1601 49.3237 91.1607L50.0041 91.164C50.1262 91.1646 50.222 91.1956 50.2915 91.257C50.361 91.3184 50.4174 91.3884 50.4606 91.4672L51.9261 94.2091L51.9497 89.3021C51.9502 89.2062 51.9811 89.1278 52.0425 89.067C52.1038 89.0063 52.1825 88.9761 52.2785 88.9766L53.8487 88.9841Z" fill="white"/>
<path d="M39.5655 87.4019C40.3402 87.6116 40.9795 87.9202 41.4836 88.3278C41.9876 88.7354 42.3311 89.2351 42.5139 89.8268C42.6945 90.427 42.6976 91.1147 42.5234 91.8899C42.4335 92.2542 42.3395 92.6174 42.2412 92.9794C42.1429 93.3414 42.0393 93.7065 41.9304 94.0747C41.691 94.8232 41.3416 95.411 40.8823 95.8379C40.4122 96.271 39.8554 96.5405 39.212 96.6465C38.5685 96.7525 37.8637 96.7018 37.0974 96.4943C36.3396 96.2892 35.7098 95.9786 35.208 95.5626C34.6979 95.1444 34.3494 94.6298 34.1627 94.0189C33.9737 93.4165 33.9694 92.733 34.1498 91.9684C34.2335 91.5934 34.3245 91.2249 34.4228 90.8629C34.521 90.5009 34.6277 90.1412 34.7428 89.7837C34.9845 89.0267 35.335 88.4347 35.7944 88.0078C36.2515 87.5893 36.8006 87.3312 37.4417 87.2337C38.0829 87.1361 38.7908 87.1922 39.5655 87.4019ZM39.0719 89.2204C38.6256 89.0996 38.2269 89.1363 37.8759 89.3304C37.5165 89.5223 37.2484 89.9107 37.0716 90.4954C36.9542 90.8613 36.8509 91.2084 36.7618 91.5368C36.6727 91.8651 36.5886 92.2083 36.5094 92.5665C36.4189 92.9668 36.4078 93.3072 36.4763 93.5878C36.534 93.8746 36.6606 94.1077 36.8559 94.2871C37.0513 94.4665 37.2963 94.5961 37.591 94.6759C37.8773 94.7534 38.1502 94.7639 38.4095 94.7076C38.6688 94.6513 38.9002 94.5151 39.1035 94.299C39.3045 94.0913 39.4671 93.7919 39.5913 93.4008C39.6957 93.0495 39.7925 92.7096 39.8816 92.3813C39.9707 92.053 40.0614 91.7024 40.1535 91.3297C40.2882 90.7336 40.2532 90.2632 40.0484 89.9185C39.8437 89.5739 39.5182 89.3412 39.0719 89.2204Z" fill="white"/>
<path d="M32.0713 84.585C32.2014 84.6562 32.2859 84.7471 32.3247 84.8578C32.3635 84.9685 32.373 85.0781 32.3533 85.1867L30.6684 93.8105C30.6627 93.8571 30.6515 93.8957 30.6347 93.9263C30.6012 93.9875 30.5488 94.0285 30.4778 94.0493C30.3948 94.0735 30.3189 94.0668 30.25 94.0291L28.8264 93.2505C28.704 93.1836 28.6272 93.0968 28.5961 92.9903C28.5649 92.8838 28.5585 92.7957 28.5767 92.7262L29.8649 86.5402L25.3278 90.9492C25.2712 90.9979 25.1935 91.0399 25.0945 91.0752C24.9879 91.1064 24.8733 91.0885 24.7509 91.0215L23.3273 90.2429C23.2584 90.2052 23.2157 90.1471 23.1991 90.0684C23.1707 89.9932 23.1733 89.925 23.2068 89.8638C23.2236 89.8332 23.2502 89.803 23.2864 89.7731L29.6553 83.7111C29.7363 83.6361 29.8339 83.5851 29.9482 83.5581C30.0548 83.5269 30.177 83.549 30.3148 83.6243L32.0713 84.585Z" fill="white"/>
<path d="M26.2841 80.9914C26.356 81.0549 26.3947 81.1297 26.4 81.2158C26.4054 81.302 26.3762 81.381 26.3127 81.4529L20.6774 87.8236C20.6138 87.8955 20.5389 87.9341 20.4526 87.9395C20.3664 87.9448 20.2873 87.9157 20.2153 87.8523L15.6327 83.8097C15.5608 83.7462 15.5221 83.6714 15.5168 83.5852C15.5114 83.4991 15.5406 83.4201 15.6041 83.3482L16.4191 82.4269C16.4827 82.355 16.5576 82.3164 16.6438 82.3111C16.7301 82.3058 16.8092 82.3348 16.8811 82.3983L20.0114 85.1597L21.1819 83.8366L18.2674 81.2656C18.1955 81.2021 18.1597 81.124 18.1602 81.0314C18.1548 80.9452 18.184 80.8662 18.2475 80.7943L19.0018 79.9416C19.0596 79.8763 19.1345 79.8377 19.2265 79.8258C19.3128 79.8205 19.3919 79.8495 19.4639 79.913L22.3783 82.484L23.5833 81.1216L20.3746 78.291C20.3026 78.2275 20.2639 78.1527 20.2586 78.0665C20.2533 77.9804 20.2824 77.9014 20.346 77.8295L21.1609 76.9082C21.2245 76.8363 21.2994 76.7977 21.3857 76.7924C21.4719 76.787 21.551 76.8161 21.623 76.8796L26.2841 80.9914Z" fill="white"/>
<path d="M18.1324 77.2873C18.1912 77.3632 18.2152 77.4439 18.2043 77.5295C18.1935 77.6151 18.1501 77.6873 18.0742 77.746L17.1014 78.4988C17.0256 78.5575 16.9447 78.5815 16.859 78.5706C16.7733 78.5597 16.701 78.5164 16.6422 78.4406L14.1313 75.2048C14.0724 75.129 14.0484 75.0483 14.0593 74.9627C14.0702 74.877 14.1135 74.8049 14.1894 74.7461L15.1622 73.9933C15.2381 73.9346 15.3189 73.9107 15.4046 73.9216C15.4903 73.9324 15.5626 73.9758 15.6214 74.0516L18.1324 77.2873Z" fill="white"/>
<path d="M15.908 68.9943C15.9702 69.1289 15.98 69.2541 15.9374 69.3698C15.8948 69.4855 15.8256 69.575 15.7299 69.6383L8.73483 74.4335C8.72264 74.4487 8.70863 74.46 8.69279 74.4673C8.67694 74.4746 8.66506 74.4801 8.65713 74.4837C8.59376 74.5129 8.52732 74.5148 8.45782 74.4892C8.37675 74.4593 8.32157 74.4127 8.29228 74.3493L7.61149 72.8765C7.509 72.6548 7.53941 72.4919 7.70273 72.3877L11.9923 69.4738L8.85191 69.884C8.77755 69.8895 8.69191 69.8809 8.59499 69.8583C8.49015 69.8394 8.40844 69.7666 8.34988 69.6399L7.95458 68.7847C7.89235 68.6501 7.88804 68.5368 7.94165 68.4449C7.98732 68.3566 8.03819 68.2899 8.09425 68.2448L10.4322 66.1297L5.44072 67.4941C5.25545 67.5507 5.11157 67.4681 5.00908 67.2464L4.32829 65.7735C4.29534 65.7023 4.29562 65.6301 4.32912 65.557C4.35469 65.4876 4.39916 65.4383 4.46254 65.409C4.47047 65.4054 4.48235 65.3999 4.49819 65.3926C4.51404 65.3853 4.52988 65.378 4.54573 65.3707L12.7377 63.1649C12.848 63.1333 12.9611 63.1388 13.0769 63.1814C13.1928 63.2241 13.2818 63.3127 13.344 63.4474L13.8656 64.5758C13.9278 64.7104 13.9397 64.8298 13.9014 64.9339C13.863 65.038 13.8176 65.1166 13.7652 65.1695L10.9211 67.9359L14.8743 67.5689C14.9486 67.5634 15.0379 67.5799 15.1422 67.6183C15.2428 67.6488 15.3242 67.7313 15.3864 67.8659L15.908 68.9943Z" fill="white"/>
<path d="M12.3646 59.8642C12.3874 59.9574 12.3763 60.0409 12.3314 60.1147C12.2866 60.1884 12.2175 60.2366 12.1243 60.2593L3.85953 62.2687C3.76629 62.2914 3.68277 62.2803 3.60897 62.2354C3.53517 62.1905 3.4869 62.1214 3.46418 62.0282L3.04887 60.3246C3.02614 60.2314 3.03721 60.1479 3.08209 60.0741C3.12696 60.0004 3.19602 59.9522 3.28926 59.9295L11.554 57.9201C11.6472 57.8974 11.7307 57.9085 11.8045 57.9534C11.8783 57.9983 11.9266 58.0674 11.9493 58.1606L12.3646 59.8642Z" fill="white"/>
<path d="M11.5058 56.0569C11.5143 56.1525 11.4909 56.2334 11.4356 56.2997C11.3802 56.3659 11.3047 56.4033 11.2091 56.4119L2.73744 57.1693C2.64186 57.1778 2.56093 57.1544 2.49466 57.099C2.42838 57.0436 2.39096 56.9682 2.38239 56.8726L2.22816 55.1522C2.22038 55.0653 2.24417 54.9888 2.29954 54.9225C2.35413 54.8476 2.42921 54.8058 2.52479 54.7973L9.35428 54.1867L9.00142 50.2507C8.99285 50.1551 9.0206 50.0738 9.08466 50.0067C9.13925 49.9318 9.21433 49.8901 9.30991 49.8815L10.6132 49.765C10.7088 49.7564 10.7901 49.7842 10.8572 49.8483C10.9235 49.9037 10.9609 49.9791 10.9695 50.0747L11.5058 56.0569Z" fill="white"/>
<path d="M11.1244 48.1801C11.1148 48.2756 11.0765 48.3507 11.0096 48.4053C10.9427 48.46 10.8616 48.4825 10.7661 48.4729L2.30318 47.6229C2.2077 47.6133 2.13264 47.5751 2.078 47.5082C2.02336 47.4414 2.00085 47.3602 2.01047 47.2647L2.18355 45.5462C2.19229 45.4594 2.2301 45.3886 2.29698 45.334C2.36473 45.2707 2.44635 45.2438 2.54183 45.2534L9.36423 45.9386L9.76022 42.0067C9.76984 41.9113 9.81243 41.8366 9.88798 41.7828C9.95574 41.7195 10.0374 41.6926 10.1328 41.7022L11.4348 41.833C11.5303 41.8426 11.6049 41.8851 11.6587 41.9607C11.7133 42.0275 11.7358 42.1087 11.7262 42.2042L11.1244 48.1801Z" fill="white"/>
<path d="M9.15791 40.6985C9.13182 40.7908 9.08108 40.8581 9.0057 40.9003C8.93032 40.9425 8.84645 40.9506 8.75409 40.9246L7.57016 40.591C7.4778 40.565 7.41053 40.5143 7.36836 40.439C7.32619 40.3636 7.31814 40.2798 7.34423 40.1874L8.45781 36.246C8.4839 36.1537 8.53464 36.0864 8.61002 36.0442C8.68539 36.002 8.76927 35.9939 8.86163 36.0199L10.0456 36.3535C10.1379 36.3795 10.2052 36.4302 10.2474 36.5055C10.2895 36.5809 10.2976 36.6647 10.2715 36.757L9.15791 40.6985Z" fill="white"/>
<path d="M14.0277 34.8396C13.9855 34.916 13.9208 34.97 13.8336 35.0017C13.7506 35.0257 13.667 35.0145 13.583 34.9683L6.13199 30.8663C6.04792 30.82 5.9939 30.7554 5.96992 30.6725C5.95015 30.582 5.96135 30.4985 6.0035 30.4221L6.68647 29.1849C6.75393 29.0627 6.83891 28.99 6.94141 28.9668C7.04049 28.9317 7.11335 28.917 7.16 28.9228L11.8953 28.9007L9.38597 24.8903C9.36041 24.8464 9.33182 24.7809 9.30019 24.6937C9.26514 24.5948 9.28345 24.4804 9.35512 24.3505L10.0318 23.1248C10.0781 23.0408 10.1428 22.9868 10.2258 22.9627C10.3131 22.9311 10.3987 22.9384 10.4828 22.9847L17.9338 27.0866C18.0178 27.1329 18.0697 27.2013 18.0895 27.2919C18.1135 27.3748 18.1023 27.4582 18.0559 27.5423L17.3034 28.9055C17.257 28.9895 17.1902 29.0473 17.103 29.079C17.02 29.103 16.9365 29.0919 16.8524 29.0456L12.5537 26.6791L14.2349 29.2925C14.2868 29.3609 14.3227 29.4404 14.3425 29.531C14.3622 29.6215 14.3426 29.7202 14.2836 29.8272L13.9547 30.4229C13.8957 30.5298 13.8226 30.5991 13.7354 30.6307C13.6481 30.6624 13.5596 30.6784 13.4697 30.6787L10.3594 30.6543L14.658 33.0208C14.7421 33.067 14.7961 33.1316 14.8201 33.2145C14.8441 33.2975 14.8329 33.3809 14.7865 33.4649L14.0277 34.8396Z" fill="white"/>
<path d="M22.2465 23.0952C21.6916 23.675 21.1144 24.0888 20.5149 24.3367C19.9155 24.5846 19.3118 24.6476 18.704 24.5257C18.0898 24.3978 17.4836 24.0724 16.8852 23.5495C16.6078 23.2968 16.3334 23.0409 16.0621 22.7819C15.7907 22.523 15.5192 22.2578 15.2476 21.9865C14.7038 21.4192 14.354 20.8321 14.1982 20.2252C14.0422 19.606 14.0715 18.9887 14.286 18.3734C14.5005 17.7582 14.8822 17.1638 15.4311 16.5902C15.9739 16.023 16.5482 15.6185 17.154 15.3766C17.7658 15.1285 18.385 15.0682 19.0114 15.1959C19.6316 15.3175 20.2347 15.6399 20.8208 16.163C21.1105 16.4155 21.3911 16.6712 21.6624 16.9301C21.9338 17.1891 22.1991 17.4544 22.4584 17.726C23.0085 18.2993 23.3615 18.8894 23.5172 19.4963C23.6666 20.0972 23.6309 20.7023 23.4101 21.3115C23.1893 21.9208 22.8014 22.5153 22.2465 23.0952ZM20.8834 21.7942C21.2031 21.4602 21.3615 21.0928 21.3586 20.6921C21.3617 20.285 21.1484 19.8644 20.7188 19.4302C20.4532 19.1526 20.1973 18.8963 19.9512 18.6614C19.7051 18.4265 19.4435 18.1889 19.1664 17.9485C18.8577 17.678 18.5636 17.5059 18.2841 17.4321C18.0043 17.3459 17.7388 17.3457 17.4876 17.4316C17.2364 17.5174 17.0053 17.6706 16.7942 17.8912C16.5891 18.1055 16.4493 18.3399 16.3748 18.5944C16.3003 18.8489 16.3094 19.1169 16.4022 19.3984C16.4887 19.6739 16.6743 19.9595 16.9588 20.2552C17.2178 20.5145 17.4704 20.7616 17.7165 20.9965C17.9626 21.2314 18.2275 21.4782 18.5112 21.7369C18.971 22.1396 19.4014 22.3333 19.8024 22.3181C20.2034 22.3028 20.5637 22.1282 20.8834 21.7942Z" fill="white"/>
<path d="M28.2988 17.8644C28.1742 17.9449 28.054 17.9759 27.938 17.9573C27.822 17.9387 27.7209 17.895 27.6347 17.8261L20.8397 12.2454C20.8014 12.2183 20.7727 12.1901 20.7537 12.1608C20.7158 12.1022 20.7046 12.0367 20.7201 11.9644C20.7382 11.88 20.7802 11.8165 20.8462 11.7739L22.2091 10.8935C22.3264 10.8178 22.4393 10.7916 22.5479 10.8149C22.6566 10.8382 22.7372 10.8744 22.7898 10.9235L27.6261 14.9965L25.9004 8.91417C25.8845 8.84139 25.8845 8.75312 25.9004 8.64936C25.9237 8.54086 25.9939 8.44875 26.1112 8.37301L27.4741 7.49261C27.5401 7.45001 27.6116 7.44014 27.6888 7.46299C27.7686 7.47379 27.8274 7.50848 27.8653 7.56705C27.8843 7.59634 27.8983 7.63402 27.9074 7.6801L30.2178 16.1576C30.2454 16.2643 30.2439 16.3744 30.2133 16.4876C30.19 16.5961 30.1124 16.6929 29.9805 16.7781L28.2988 17.8644Z" fill="white"/>
<path d="M34.2173 14.4948C34.1272 14.5277 34.0429 14.526 33.9646 14.4896C33.8862 14.4532 33.8306 14.3899 33.7976 14.2998L30.8745 6.31235C30.8415 6.22224 30.8432 6.13804 30.8796 6.05976C30.916 5.98148 30.9792 5.92589 31.0694 5.89299L36.8099 3.79787C36.9 3.76497 36.9842 3.76672 37.0626 3.80313C37.1409 3.83954 37.1966 3.9028 37.2296 3.99292L37.6523 5.14802C37.6853 5.23814 37.6836 5.32233 37.6472 5.40062C37.6108 5.4789 37.5476 5.53449 37.4574 5.56739L33.5362 6.99853L34.1433 8.65746L37.7941 7.32501C37.8842 7.29211 37.97 7.29797 38.0513 7.34257C38.1297 7.37898 38.1854 7.44224 38.2183 7.53235L38.6096 8.60144C38.6396 8.68336 38.6379 8.76756 38.6045 8.85403C38.5681 8.93232 38.5048 8.98791 38.4147 9.02081L34.7639 10.3532L35.389 12.0613L39.4086 10.5943C39.4987 10.5614 39.5829 10.5632 39.6613 10.5996C39.7396 10.636 39.7953 10.6992 39.8283 10.7893L40.251 11.9444C40.284 12.0346 40.2823 12.1188 40.2459 12.197C40.2095 12.2753 40.1463 12.3309 40.0561 12.3638L34.2173 14.4948Z" fill="white"/>
<path d="M41.3893 9.09899C41.2946 9.11395 41.2122 9.09603 41.1424 9.04523C41.0725 8.99443 41.0301 8.92164 41.0151 8.82686L40.8229 7.61195C40.8079 7.51717 40.8258 7.43486 40.8765 7.36503C40.9273 7.2952 41.0001 7.2528 41.0949 7.23785L45.1406 6.5995C45.2353 6.58455 45.3177 6.60247 45.3875 6.65326C45.4574 6.70406 45.4998 6.77685 45.5148 6.87163L45.707 8.08654C45.722 8.18133 45.7041 8.26363 45.6534 8.33346C45.6026 8.4033 45.5298 8.44569 45.435 8.46065L41.3893 9.09899Z" fill="white"/>
</svg>
